Coordinates
version=1
nRows=24
nColumns=24
inDegrees=yes

Units are S.I. units (second, meters, Newtons, ...)
Angles are in degrees.

endheader
time	pelvis_tilt	pelvis_list	pelvis_rotation	pelvis_tx	pelvis_ty	pelvis_tz	hip_flexion_r	hip_adduction_r	hip_rotation_r	knee_angle_r	ankle_angle_r	subtalar_angle_r	mtp_angle_r	hip_flexion_l	hip_adduction_l	hip_rotation_l	knee_angle_l	ankle_angle_l	subtalar_angle_l	mtp_angle_l	lumbar_extension	lumbar_bending	lumbar_rotation
      0.36700000	     -1.57655973	      4.41171526	     -0.49972910	     -0.81444278	      1.02655827	      0.26555120	     31.29520441	     -3.39088432	     -0.60443271	     -7.49206116	      9.47110172	     -2.43000134	     12.51679746	    -17.62962937	      6.12829667	     -0.34730892	     -3.72501748	     19.85904342	     10.53467484	      4.09744769	    -13.87760354	     -4.94959674	     -3.18693940
      0.37116667	     -1.59365998	      4.39860805	     -0.37231971	     -0.80814560	      1.02563961	      0.26568459	     31.21673489	     -3.37440250	     -0.38394835	     -7.77292156	      9.36535835	     -2.69340833	     12.51201455	    -17.73723652	      6.03806269	     -0.39326962	     -4.25070268	     20.00193976	     10.83162792	      4.15915691	    -13.81552787	     -4.81449839	     -3.18609386
      0.37533333	     -1.62785191	      4.37641884	     -0.24823242	     -0.80178037	      1.02473211	      0.26583427	     31.15511710	     -3.34592247	     -0.18211205	     -8.09734372	      9.23367117	     -2.94407461	     12.51295341	    -17.81674320	      5.93488369	     -0.46848543	     -4.80402742	     20.13272024	     11.16763309	      4.25688505	    -13.72445225	     -4.66725651	     -3.16197280
      0.37950000	     -1.64690535	      4.34185654	     -0.12533229	     -0.79537918	      1.02389176	      0.26599363	     31.07054745	     -3.30529310	      0.00646447	     -8.44648351	      9.05758743	     -3.21434153	     12.51959489	    -17.89707950	      5.81431317	     -0.56879713	     -5.39014193	     20.24974964	     11.53413221	      4.38512960	    -13.65059262	     -4.50161355	     -3.14382492
      0.38366667	     -1.65767765	      4.30018570	     -0.01059585	     -0.78894644	      1.02310183	      0.26617320	     30.97794436	     -3.25368383	      0.18309240	     -8.82791324	      8.84669314	     -3.48552530	     12.53460945	    -17.97930402	      5.68488146	     -0.67536451	     -5.98988637	     20.33624309	     11.89762234	      4.55593541	    -13.58517827	     -4.32689250	     -3.10906451
      0.38783333	     -1.68722425	      4.25213418	      0.10533807	     -0.78247254	      1.02233909	      0.26636530	     30.90455811	     -3.19536814	      0.34049245	     -9.23669707	      8.57973916	     -3.77136228	     12.55431115	    -18.02341688	      5.54516687	     -0.78094000	     -6.62784569	     20.39860656	     12.24941093	      4.75169335	    -13.48534407	     -4.14171670	     -3.08182980
      0.39200000	     -1.71119335	      4.19179305	      0.22709252	     -0.77597844	      1.02164867	      0.26655906	     30.81990923	     -3.12842150	      0.47558728	     -9.65954106	      8.25939038	     -4.04377595	     12.57662201	    -18.06006826	      5.38822366	     -0.85329250	     -7.29343506	     20.43851782	     12.59377525	      4.96313431	    -13.40922333	     -3.93638988	     -3.04078126
      0.39616667	     -1.71941046	      4.12413871	      0.32256668	     -0.76944267	      1.02100532	      0.26678332	     30.74332153	     -3.04907739	      0.53081882	    -10.14718225	      7.92673804	     -4.20824681	     12.72950346	    -18.08136445	      5.21890415	     -1.12313391	     -8.02254053	     20.43616831	     13.12236286	      6.08111494	    -13.32175602	     -3.73805950	     -2.97404065
      0.40033333	     -1.75383238	      4.05376481	      0.43507165	     -0.76289502	      1.02041348	      0.26703094	     30.66712255	     -2.96347237	      0.68871840	    -10.59821602	      7.49546039	     -4.64740419	     12.73769350	    -18.08989444	      5.05174377	     -1.13393503	     -8.71958114	     20.38651488	     13.29039031	      6.24231671	    -13.21934658	     -3.52202291	     -2.95323689
      0.40450000	     -1.76792263	      3.97308003	      0.53518463	     -0.75634668	      1.01989900	      0.26730089	     30.58678746	     -2.86849432	      0.77679561	    -11.09093692	      7.02489161	     -4.96161672	     12.76068303	    -18.07084988	      4.86166604	     -1.33251560	     -9.51379201	     20.34546429	     13.75338037	      6.54433477	    -13.14631357	     -3.30931266	     -2.89263447
      0.40866667	     -1.80216422	      3.86944225	      0.62800615	     -0.74973497	      1.01940736	      0.26757965	     30.53637379	     -2.74970417	      0.83101257	    -11.61821134	      6.56541921	     -5.27284467	     12.77706489	    -18.02820690	      4.65207528	     -1.48445782	    -10.31422450	     20.26081444	     14.08241067	      6.84397467	    -13.02642749	     -3.04444579	     -2.82936856
      0.41283333	     -1.81834321	      3.76594169	      0.71696946	     -0.74313511	      1.01901145	      0.26787983	     30.47748720	     -2.63261878	      0.86746138	    -12.17232251	      6.06565206	     -5.56259599	     12.79173403	    -17.97529295	      4.43638688	     -1.67471578	    -11.16550088	     20.12759544	     14.46299558	      7.21686874	    -12.93840265	     -2.79410889	     -2.75214525
      0.41700000	     -1.85092003	      3.65170433	      0.79797623	     -0.73651441	      1.01865086	      0.26820770	     30.44764933	     -2.50306453	      0.87948037	    -12.75674810	      5.56191061	     -5.83528891	     12.79896367	    -17.88562003	      4.21019076	     -1.84776607	    -12.05486546	     19.94987735	     14.80731155	      7.62805459	    -12.83082639	     -2.52929705	     -2.67464232
      0.42116667	     -1.77473876	      3.50409909	      0.87025023	     -0.72991322	      1.01852457	      0.26853615	     30.31072413	     -2.34879315	      0.80242138	    -13.36716010	      5.09070212	     -5.97935960	     12.81534651	    -17.88548808	      3.93615677	     -2.12284493	    -12.98535802	     19.74387448	     15.30424050	      9.12865418	    -12.88145978	     -2.21705148	     -2.57494333
      0.42533333	     -1.86381643	      3.42342542	      0.92187726	     -0.72329870	      1.01819118	      0.26896133	     30.38064278	     -2.23738128	      0.86597481	    -14.03153572	      4.56320761	     -6.30622769	     12.79578240	    -17.70279518	      3.75632936	     -2.22181227	    -13.91847878	     19.39164321	     15.47634210	      9.58108508	    -12.69375605	     -2.01915216	     -2.49761670
      0.42950000	     -1.87613367	      3.27891858	      0.97904278	     -0.71665878	      1.01804019	      0.26935798	     30.36960143	     -2.07838974	      0.81098598	    -14.71841843	      4.12458827	     -6.48050102	     12.76235006	    -17.55888407	      3.48988492	     -2.44894710	    -14.94063026	     19.09065354	     15.83460195	     10.09256197	    -12.60626086	     -1.71862302	     -2.38771296
      0.43366667	     -1.89339815	      3.13787603	      1.01942088	     -0.71000860	      1.01793777	      0.26980079	     30.37639395	     -1.91608166	      0.76569343	    -15.43492162	      3.71543427	     -6.66782076	     12.71056203	    -17.39289505	      3.22878662	     -2.67171918	    -15.98659973	     18.71498196	     16.14486103	     10.67477893	    -12.51428715	     -1.42506953	     -2.27269920
      0.43783333	     -1.86243262	      2.97770731	      1.05897847	     -0.70337674	      1.01798443	      0.27023504	     30.33074132	     -1.74114657	      0.69030841	    -16.15551030	      3.35423930	     -6.77149143	     12.32761832	    -17.26247101	      2.95228596	     -2.82238395	    -17.04890269	     18.20521751	     16.25532226	     14.50687066	    -12.49232354	     -1.10310755	     -2.17259701
      0.44200000	     -1.86339851	      2.82330019	      1.08383944	     -0.69672838	      1.01801981	      0.27071938	     30.33991141	     -1.56706593	      0.60723494	    -16.92715042	      3.07091014	     -6.84159295	     12.30963923	    -17.04978551	      2.67215584	     -3.05991961	    -18.20378637	     17.73480341	     16.52370434	     14.59217521	    -12.41760567	     -0.79769879	     -2.03376767
      0.44616667	     -1.82113643	      2.65766549	      1.09061605	     -0.69010494	      1.01816160	      0.27124524	     30.30428484	     -1.37443827	      0.53647846	    -17.69995532	      2.80212456	     -6.93167176	     12.26686595	    -16.86139368	      2.37488056	     -3.33485956	    -19.39473729	     17.19762881	     16.84249821	     14.79360680	    -12.40710506	     -0.48202352	     -1.89863895
      0.45033333	     -1.79478894	      2.48576232	      1.09303602	     -0.68347765	      1.01833530	      0.27179276	     30.28488835	     -1.17506234	      0.46015832	    -18.47728015	      2.58393147	     -6.99278990	     12.20448588	    -16.62103726	      2.06582094	     -3.61488475	    -20.64259301	     16.61746373	     17.12389808	     15.08389013	    -12.37442295	     -0.15917027	     -1.75981016
      0.45450000	     -1.76330299	      2.30066350	      1.09594691	     -0.67686565	      1.01856898	      0.27235518	     30.24661186	     -0.96507991	      0.37127854	    -19.22863954	      2.40837074	     -6.98391327	     12.14796632	    -16.34795987	      1.73840617	     -3.87376364	    -21.95783897	     15.99872119	     17.31869542	     15.34133639	    -12.34750837	      0.17655153	     -1.61173372
      0.45866667	     -1.69855508	      2.11815411	      1.07308158	     -0.67028104	      1.01887155	      0.27296214	     30.18187475	     -0.74664843	      0.29134296	    -19.99971539	      2.28737038	     -7.00269894	     12.06444637	    -16.08653700	      1.40613279	     -4.19559643	    -23.30180011	     15.31572866	     17.61225129	     15.71550244	    -12.37112714	      0.51251617	     -1.45694426
      0.46283333	     -1.63263499	      1.93875542	      1.05450958	     -0.66373073	      1.01925463	      0.27358988	     30.08889831	     -0.52740600	      0.24438125	    -20.71510372	      2.16871157	     -7.05988018	     11.17869167	    -15.79631369	      1.07771271	     -4.44876797	    -24.67497558	     14.45678187	     17.70196300	     19.57821871	    -12.40092141	      0.83204224	     -1.31449316
